<svg id="Layer_1" data-name="Layer 1" xmlns="http://www.w3.org/2000/svg" xmlns:xlink="http://www.w3.org/1999/xlink" viewBox="0 0 351.91 76.28">
  <defs>
    <clipPath id="clip-path" transform="translate(-6.67 -0.03)">
      <path d="M12.93,62.39a36.15,36.15,0,0,1,.83-6.74q.83-4.14,2.16-8.93T19,36.92q1.72-5,3.53-9.4c1.2-2.93,2.37-5.5,3.53-7.71a21.83,21.83,0,0,1,3.09-4.75A7,7,0,0,1,31,15.6a24.34,24.34,0,0,1,2.41,1.11,15.72,15.72,0,0,1,2.23,1.41,3.88,3.88,0,0,1,1.3,1.4,21.22,21.22,0,0,0-4.14,5.65,77.79,77.79,0,0,0-4,8.6Q27,38.58,25.32,44T22.44,54.34q-1.23,5-1.91,9.36a46.28,46.28,0,0,0-.69,7,3.17,3.17,0,0,0,.22,1.51,4.34,4.34,0,0,1-2.3-.47,4.13,4.13,0,0,1-1.12-1q-.39-.54-.72-1.08a2.09,2.09,0,0,0-1-.83,1.83,1.83,0,0,1-.87-1A11,11,0,0,1,13.47,66a16.5,16.5,0,0,1-.39-2A11.86,11.86,0,0,1,12.93,62.39Z" style="fill: none"/>
    </clipPath>
    <clipPath id="clip-path-2" transform="translate(-6.67 -0.03)">
      <path d="M43.46,28.63a3.19,3.19,0,0,1-.79-1.19,3.9,3.9,0,0,1-.36-1.55,23.28,23.28,0,0,0,2.59-6.08,27.39,27.39,0,0,0,.79-6.88,50.84,50.84,0,0,0-.43-6.33,19.64,19.64,0,0,1,3.56.61A17,17,0,0,1,52,8.36a9,9,0,0,1,2.34,1.58,3.83,3.83,0,0,1,1.15,1.77Q52.75,23.73,43.46,28.63Z" style="fill: none"/>
    </clipPath>
    <clipPath id="clip-path-3" transform="translate(-6.67 -0.03)">
      <path d="M88.1,44.43a4.76,4.76,0,0,0-2.81,1.41,34.77,34.77,0,0,0-3.56,3.6c-1.27,1.47-2.6,3.09-4,4.87s-2.69,3.55-4,5.3-2.46,3.4-3.57,4.94-2,2.76-2.81,3.68a7.55,7.55,0,0,1-2.73-1.91A7.41,7.41,0,0,1,63,63.19a46.94,46.94,0,0,1,1-4.64,44.54,44.54,0,0,1,1.69-5,52.67,52.67,0,0,1,2.59-5.43,63.76,63.76,0,0,1,3.79-6,5.52,5.52,0,0,0-3,1.48,35.28,35.28,0,0,0-4,3.82Q63,49.77,60.67,52.69t-4.32,5.73Q53.68,62.17,51.92,65a12.71,12.71,0,0,1-2.56,3.32,7.74,7.74,0,0,1-2.59-3,15.2,15.2,0,0,1-1.08-3.53,33.62,33.62,0,0,1,.54-4.32,44.13,44.13,0,0,1,1.33-5.33,69,69,0,0,1,4.29-10.44q2.63-5.17,5.07-9.5a12.27,12.27,0,0,1,3.64,1.37A16.84,16.84,0,0,1,64,36.33a22.86,22.86,0,0,1-2.23,4.72q-1.52,2.48-3.17,5.22a63.16,63.16,0,0,0-3,5.61,20.61,20.61,0,0,0-1.8,5.84c1.35-1.92,2.94-4.13,4.79-6.63s3.75-4.85,5.69-7.05A46.53,46.53,0,0,1,70,38.42c1.92-1.54,3.64-2.3,5.18-2.3a6.84,6.84,0,0,1,1.87.28,12.65,12.65,0,0,1,1.88.72A14.34,14.34,0,0,1,80.4,38c.38.27.6.47.64.61a18.62,18.62,0,0,1-1.69,3.93Q78,45,76.51,47.71c-1,1.82-2,3.59-2.81,5.29a14,14,0,0,0-1.51,4.07q3.53-4.83,6.62-8.75a85.08,85.08,0,0,1,5.83-6.73,30.73,30.73,0,0,1,5.08-4.32,8.2,8.2,0,0,1,4.43-1.51,5.19,5.19,0,0,1,2.7.75,4.07,4.07,0,0,1,1.76,2.2,35.33,35.33,0,0,1-2.12,5.18c-1,2-2,4.14-3,6.37s-1.91,4.43-2.7,6.59a17.24,17.24,0,0,0-1.19,5.83,3.09,3.09,0,0,0,.43,2,1.57,1.57,0,0,0,1.23.47,4.22,4.22,0,0,0,1.62-.32A3.16,3.16,0,0,1,94,64.48a1.11,1.11,0,0,1,.51.72,6,6,0,0,1,.07.8,17.12,17.12,0,0,1-3,1.9,7.41,7.41,0,0,1-3.39.76,6.08,6.08,0,0,1-2.84-.58,5,5,0,0,1-1.84-1.58,6.31,6.31,0,0,1-1-2.3,13,13,0,0,1-.28-2.8,18.22,18.22,0,0,1,.65-4.85A37.59,37.59,0,0,1,84.46,52c.6-1.47,1.24-2.83,1.91-4.1S87.62,45.44,88.1,44.43Z" style="fill: none"/>
    </clipPath>
    <clipPath id="clip-path-4" transform="translate(-6.67 -0.03)">
      <path d="M124.89,72.33a10.15,10.15,0,0,1-4.54-2.27A18.54,18.54,0,0,1,117,66c.43-.92.95-2.12,1.55-3.6s1.33-3.33,2.2-5.51L123.88,49q1.8-4.57,4.18-10.69c1-2.59,1.83-4.78,2.48-6.55s1.2-3.52,1.66-5.22.9-3.59,1.33-5.66.94-4.68,1.51-7.84a11.9,11.9,0,0,1,5.51,2.66,20.2,20.2,0,0,1,4.28,5A18.74,18.74,0,0,0,143,23.84q-1,2.06-2.34,4.93t-2.88,6.41q-1.59,3.52-3.31,7.49a139,139,0,0,0-6.12,15.8A118.84,118.84,0,0,0,124.89,72.33Zm10.87-28.65q4.47-6.63,8.82-12.21a114.3,114.3,0,0,1,8.32-9.61,48,48,0,0,1,7.27-6.26,10.85,10.85,0,0,1,5.76-2.24,3.85,3.85,0,0,1,2,.72A9.37,9.37,0,0,1,170.07,16a11.51,11.51,0,0,1,1.62,2.48,5.88,5.88,0,0,1,.65,2.56,50.72,50.72,0,0,0-8.75,3.78,60.5,60.5,0,0,0-8.21,5.4,68.06,68.06,0,0,0-7.49,6.8,63.08,63.08,0,0,0-6.44,8q1.16,3,2.84,6.3A73.85,73.85,0,0,0,148,57.75a51.7,51.7,0,0,0,4.32,5.8A24.15,24.15,0,0,0,157,67.8a4.49,4.49,0,0,1-1.22,1.51,16.09,16.09,0,0,1-1.87,1.33,10,10,0,0,1-2.13,1,6.72,6.72,0,0,1-2.05.36,4.64,4.64,0,0,1-3.46-1.76,21.53,21.53,0,0,1-3.2-5.33A91.36,91.36,0,0,1,139.69,56Q137.92,50.74,135.76,43.68Z" style="fill: none"/>
    </clipPath>
    <clipPath id="clip-path-5" transform="translate(-6.67 -0.03)">
      <path d="M161.18,65.06q.36-2.09,1.26-5.51t2.12-7.27c.82-2.57,1.68-5.15,2.6-7.74s1.8-4.92,2.66-7a32.66,32.66,0,0,1,1.65-3.5,10,10,0,0,1,1.59-2.12,12.38,12.38,0,0,1,2.09.5,15.21,15.21,0,0,1,2.08.87,14.41,14.41,0,0,1,1.81,1,6.38,6.38,0,0,1,1.22,1,25.83,25.83,0,0,0-3.42,5.25,56.64,56.64,0,0,0-3,7.56q3.89-3.45,6.88-6.62a53.89,53.89,0,0,0,5.58-7.06,2.38,2.38,0,0,1,1.51-.36,5.77,5.77,0,0,1,1.94.33,2.3,2.3,0,0,1,1.3.9,19.44,19.44,0,0,0-1.3,6.84A9.48,9.48,0,0,0,190.7,47a5.37,5.37,0,0,1-1,1.65,19.78,19.78,0,0,1-2,2.31,11.56,11.56,0,0,1-3.46-2.77,11.75,11.75,0,0,1-2.23-3.86A50,50,0,0,0,176.3,49a24.58,24.58,0,0,0-4.07,5,30.43,30.43,0,0,0-2.88,6.37A86.73,86.73,0,0,0,167.08,69a5.58,5.58,0,0,1-1.54-.47,12.74,12.74,0,0,1-1.81-1,11.55,11.55,0,0,1-1.61-1.23A3.13,3.13,0,0,1,161.18,65.06Z" style="fill: none"/>
    </clipPath>
    <clipPath id="clip-path-6" transform="translate(-6.67 -0.03)">
      <path d="M217.7,36.69a24.81,24.81,0,0,1-1.58,7.67A16.94,16.94,0,0,1,212.41,50a27,27,0,0,1-5.87,4.35,63.29,63.29,0,0,1-8.06,3.75c0,.28,0,.58,0,.9s0,.63,0,1a13.18,13.18,0,0,0,.15,1.94,7.34,7.34,0,0,0,.5,1.87,3.6,3.6,0,0,0,1,1.41,2.49,2.49,0,0,0,1.66.54,9,9,0,0,0,3.81-.87,19.64,19.64,0,0,0,3.57-2.12A28.48,28.48,0,0,0,212.26,60c1-1,1.86-1.88,2.63-2.7a15.81,15.81,0,0,1,1.23,1.23,34.45,34.45,0,0,1-7.1,7.16,20.07,20.07,0,0,1-7.3,3.64A11.85,11.85,0,0,1,194,65.67a10.6,10.6,0,0,1-2.78-7.38,23,23,0,0,1,.83-6,28.9,28.9,0,0,1,2.31-5.9A33.61,33.61,0,0,1,197.79,41,28.64,28.64,0,0,1,202,36.62a20.41,20.41,0,0,1,4.68-2.95,11.64,11.64,0,0,1,4.79-1.08C213.71,32.88,215.78,34.24,217.7,36.69Zm-5,2.38a10.71,10.71,0,0,0-4,1.58,17,17,0,0,0-3.92,3.46,27.25,27.25,0,0,0-3.35,5,29.1,29.1,0,0,0-2.38,6.19,32.18,32.18,0,0,0,9.58-7.09A14.76,14.76,0,0,0,212.73,39.07Z" style="fill: none"/>
    </clipPath>
    <clipPath id="clip-path-7" transform="translate(-6.67 -0.03)">
      <path d="M245.85,37.74a13.46,13.46,0,0,1-.47,2.84,15,15,0,0,1-1,2.66,9.51,9.51,0,0,1-1.22,2A1.75,1.75,0,0,1,242,46q-.79-.08-.93-1.08a2.17,2.17,0,0,1,.18-.69c.12-.31.25-.66.39-1s.28-.77.4-1.15a3.48,3.48,0,0,0,.18-1,2.93,2.93,0,0,0-.47-1.69,1.45,1.45,0,0,0-1.26-.69c-1.92,0-3.38,1.2-4.39,3.58s-1.51,5.9-1.51,10.54a2.77,2.77,0,0,0,.07.86h5a1.44,1.44,0,0,1,.07.57,1.28,1.28,0,0,1-.29.93c-1.1.24-2,.45-2.63.61a10.32,10.32,0,0,0-1.47.47,1.08,1.08,0,0,0-.61.46,1.64,1.64,0,0,0-.11.68c0,.39,0,.77,0,1.15s0,.86,0,1.43a14,14,0,0,1-3.28,9.69,13.45,13.45,0,0,1-9.1,4.24,5.88,5.88,0,0,1-2.09-.58A9.27,9.27,0,0,1,218.17,72a9.8,9.8,0,0,1-1.7-1.77,6,6,0,0,1-1-2A12.44,12.44,0,0,1,216.62,63a14.63,14.63,0,0,1,3.13-4.42,15.77,15.77,0,0,1,4.68-3.12,14.3,14.3,0,0,1,5.87-1.2,17.28,17.28,0,0,0-.36-3.54c-.24-1.16-.49-2.28-.76-3.37s-.51-2.14-.75-3.18a13.54,13.54,0,0,1-.36-3.07,10,10,0,0,1,.79-3.87A14.35,14.35,0,0,1,231,33.69a13.35,13.35,0,0,1,3-2.79,10.85,10.85,0,0,1,3.6-1.59,6.94,6.94,0,0,1,2.12,1.26,29.63,29.63,0,0,1,2.63,2.34,26.2,26.2,0,0,1,2.31,2.63A6.63,6.63,0,0,1,245.85,37.74ZM222.09,70.57a12,12,0,0,0,3.28-2.09,15.7,15.7,0,0,0,2.7-3.1,16.34,16.34,0,0,0,1.83-3.67,11.34,11.34,0,0,0,.69-3.81,8.08,8.08,0,0,0-3.17,1.33,18.77,18.77,0,0,0-3.24,2.66,17.57,17.57,0,0,0-2.52,3.21,5.78,5.78,0,0,0-1,2.88A3,3,0,0,0,222.09,70.57Z" style="fill: none"/>
    </clipPath>
    <clipPath id="clip-path-8" transform="translate(-6.67 -0.03)">
      <path d="M250.17,38.92a4.55,4.55,0,0,1-.65-1.83,12.49,12.49,0,0,1-.29-2.41,23.94,23.94,0,0,0,3.6.28H256q1.08-2.13,2.34-4.23t2.45-3.85A34.58,34.58,0,0,1,263,23.93a8.73,8.73,0,0,1,1.62-1.57,8.72,8.72,0,0,1,1.84.26,21.05,21.05,0,0,1,2.27.64c.76.27,1.46.54,2.08.83a3.71,3.71,0,0,1,1.3.87q-2.16,2.71-3.71,5t-3.35,5.32H268a21.79,21.79,0,0,0,3-.21,2.57,2.57,0,0,1,.57.9,2.85,2.85,0,0,1,.22,1.11,23.59,23.59,0,0,1-8.57,1.37q-1.8,3.46-3.2,6.9T257.62,52a57.75,57.75,0,0,0-1.51,6,27.13,27.13,0,0,0-.54,5.06c0,2.11.79,3.29,2.38,3.53a16.51,16.51,0,0,0,4.1-1.08,13.83,13.83,0,0,0,3.46-2,3.12,3.12,0,0,1,.5,1.08,7.54,7.54,0,0,1-1.48,1.5c-.69.57-1.45,1.13-2.26,1.68a20.82,20.82,0,0,1-2.38,1.39,6.29,6.29,0,0,1-1.73.65,9.63,9.63,0,0,1-3.6-.72,15.18,15.18,0,0,1-3.27-1.81,10.44,10.44,0,0,1-2.42-2.41,4.61,4.61,0,0,1-.93-2.63,24.91,24.91,0,0,1,.47-4.36q.47-2.64,1.33-5.73c.57-2.07,1.25-4.23,2-6.49s1.61-4.5,2.52-6.71Z" style="fill: none"/>
    </clipPath>
    <clipPath id="clip-path-9" transform="translate(-6.67 -0.03)">
      <path d="M271.34,61.68a13.16,13.16,0,0,1,.11-1.62c.07-.65.2-1.52.39-2.6s.44-2.38.76-3.92.7-3.38,1.19-5.54c.09-.48.31-1.25.64-2.31a27.8,27.8,0,0,1,1.34-3.35,22.14,22.14,0,0,1,2-3.42,7.39,7.39,0,0,1,2.84-2.44A12.68,12.68,0,0,1,283.87,38a11,11,0,0,1,3.45,3.28A25,25,0,0,0,284.55,45a36.71,36.71,0,0,0-2,3.89c-.6,1.35-1.15,2.74-1.65,4.18s-1.07,3-1.69,4.53q-.79,2-1.44,4.14a14.73,14.73,0,0,0-.72,3.71c0,.86,0,1.48,0,1.84s-.16.54-.4.54a4,4,0,0,1-1.15-.36,7.15,7.15,0,0,1-1.76-1.12,7.89,7.89,0,0,1-1.62-1.91A5.05,5.05,0,0,1,271.34,61.68Zm13.75-31.25a5.66,5.66,0,0,1,.22-1.3,2.75,2.75,0,0,1-.62-1.08,3.9,3.9,0,0,1-.25-1.29,11.79,11.79,0,0,1,.18-1.77c.12-.74.28-1.55.47-2.41s.43-1.76.72-2.7.57-1.79.86-2.56a6.4,6.4,0,0,1,2.13.47A15.6,15.6,0,0,1,291.35,19a16.7,16.7,0,0,1,2.38,1.65,9.87,9.87,0,0,1,1.65,1.69c-.52.53-1.22,1.26-2.08,2.2s-1.71,1.92-2.52,3-1.56,2-2.24,2.92a16.17,16.17,0,0,0-1.29,1.94,2.82,2.82,0,0,1-1.51-.75A1.73,1.73,0,0,1,285.09,30.43Z" style="fill: none"/>
    </clipPath>
    <clipPath id="clip-path-10" transform="translate(-6.67 -0.03)">
      <path d="M313.1,37.41a7.27,7.27,0,0,1,1.69.25,9.33,9.33,0,0,1,1.76.65,7.65,7.65,0,0,1,1.33.83c.36.29.54.55.54.79-1,2-1.84,4-2.66,6.09s-1.51,4-2.09,5.86a51.37,51.37,0,0,0-1.33,5.26,23.26,23.26,0,0,0-.47,4.25,11.32,11.32,0,0,0,.43,3.35,3.24,3.24,0,0,0,1.44,1.9,7.23,7.23,0,0,1-2.23.94,9.74,9.74,0,0,1-2.45.36q-3.88,0-3.88-5.33,0-4.09,2.73-11.23a44.88,44.88,0,0,1-7.13,11.33,22.39,22.39,0,0,1-3.92,3.62A9.21,9.21,0,0,1,293.22,68a5.05,5.05,0,0,1-4.32-2.42,10.75,10.75,0,0,1-1.65-6.18A23.55,23.55,0,0,1,289,50.88a38.28,38.28,0,0,1,4.42-8.32,31.68,31.68,0,0,1,5.87-6.4,9.84,9.84,0,0,1,6.12-2.56,5.59,5.59,0,0,1,1.62.86A12.07,12.07,0,0,1,308.74,36a11.13,11.13,0,0,1,1.4,1.76,3.7,3.7,0,0,1,.65,1.54,13,13,0,0,0-5.94,2.8,29.21,29.21,0,0,0-5.54,5.71,33.56,33.56,0,0,0-4.07,7.15A18.52,18.52,0,0,0,293.66,62a1.6,1.6,0,0,0,1,1.72c1.4-.28,3-1.47,4.83-3.56a69.56,69.56,0,0,0,6.62-9.68q.72-1.31,1.62-2.88c.6-1.06,1.21-2.16,1.84-3.32s1.23-2.31,1.83-3.49S312.57,38.52,313.1,37.41Z" style="fill: none"/>
    </clipPath>
    <clipPath id="clip-path-11" transform="translate(-6.67 -0.03)">
      <path d="M333.76,31.58a7.63,7.63,0,0,1,3.53,2.56,13.43,13.43,0,0,1,2.45,4.35,34.94,34.94,0,0,1-2.45,4.68q-1.67,2.74-3.31,5.58c-1.11,1.9-2.1,3.7-3,5.4a13.44,13.44,0,0,0-1.55,4.21c.77-.81,1.62-1.76,2.56-2.84s1.84-2.16,2.73-3.24,1.72-2.06,2.48-3,1.37-1.55,1.81-2q1.37-1.44,3.23-3.35a51.41,51.41,0,0,1,3.93-3.6,29.22,29.22,0,0,1,4.14-2.88,7.85,7.85,0,0,1,3.82-1.19,4.26,4.26,0,0,1,3.13,1.26,11,11,0,0,1,2,2.63c0,.1-.18.23-.54.4a5.68,5.68,0,0,0-1.55,1.4,28.5,28.5,0,0,0-2.27,3.56c-.84,1.52-1.65,3.15-2.45,4.9a40.64,40.64,0,0,0-2,5.36,18,18,0,0,0-.79,5,3.76,3.76,0,0,0,.47,2.31,1.75,1.75,0,0,0,1.33.5,4.33,4.33,0,0,0,1.66-.36,3.8,3.8,0,0,1,1.37-.36,1.09,1.09,0,0,1,.46.61,2.35,2.35,0,0,1,.18.83,11.45,11.45,0,0,1-1.36,1,17.74,17.74,0,0,1-1.66.93,14,14,0,0,1-1.69.72,4.38,4.38,0,0,1-1.48.29,8.21,8.21,0,0,1-3.42-.61,5.39,5.39,0,0,1-2.09-1.62,6,6,0,0,1-1-2.41,15,15,0,0,1-.29-3,15.79,15.79,0,0,1,.14-1.94,17.86,17.86,0,0,1,.58-2.56c.29-1,.7-2.16,1.23-3.53s1.19-3,2-4.93a14.91,14.91,0,0,0-1.94,1,18.4,18.4,0,0,0-3.89,3.09,86.9,86.9,0,0,0-6.08,6.41q-2.7,3.16-5.51,7.06-1.59,2.24-2.77,3.78a8.27,8.27,0,0,1-2.06,2,5.36,5.36,0,0,1-2.23-2.41,15.16,15.16,0,0,1-1.08-3.21,18.7,18.7,0,0,1,.4-3.45q.39-2.09,1.08-4.65c.45-1.7,1-3.49,1.69-5.36s1.41-3.74,2.23-5.62a75,75,0,0,1,5-9.93Q333.19,31.87,333.76,31.58Z" style="fill: none"/>
    </clipPath>
  </defs>
  <title>I&amp;apos;m Krestian</title>
  <g style="clip-path: url(#clip-path)">
    <path class="path" d="M34,14S11,55,18,72" transform="translate(-6.67 -0.03)" style="fill: none;stroke: #fff;stroke-miterlimit: 10;stroke-width: 20px"/>
  </g>
  <g style="clip-path: url(#clip-path-2)">
    <path class="path" d="M51,3s4,10-8,26" transform="translate(-6.67 -0.03)" style="fill: none;stroke: #fff;stroke-miterlimit: 10;stroke-width: 16px"/>
  </g>
  <g style="clip-path: url(#clip-path-3)">
    <path class="path" d="M61,33S46,59,49,66c0,0,22-30,28-32,6.64-2.21-14.5,34.5-14.5,34.5S89,37,94,38s-8.5,14.5-8.5,22.5S97,65,97,65" transform="translate(-6.67 -0.03)" style="fill: none;stroke: #fff;stroke-miterlimit: 10;stroke-width: 9px"/>
  </g>
  <g style="clip-path: url(#clip-path-4)">
    <path class="path" d="M143.5,7.5s-20.08,48.74-23,65" transform="translate(-6.67 -0.03)" style="fill: none;stroke: #fff;stroke-miterlimit: 10;stroke-width: 12px"/>
    <path class="path" d="M178.5,13.5s-26,5-38,31c-6,13,15,27,15,27" transform="translate(-6.67 -0.03)" style="fill: none;stroke: #fff;stroke-miterlimit: 10;stroke-width: 11px"/>
  </g>
  <g style="clip-path: url(#clip-path-5)">
    <path class="path" d="M189.5,52.5c-8-5,7-23-9-12-7.66,5.27-17,29.68-17.5,27.5-2.5-10.5,15.5-38.5,15.5-38.5" transform="translate(-6.67 -0.03)" style="fill: none;stroke: #fff;stroke-miterlimit: 10;stroke-width: 9px"/>
  </g>
  <g style="clip-path: url(#clip-path-6)">
    <path class="path" d="M217.5,57.5s-15,14-19.16,10.46-4.16-3.51-1.84-17.46c2-12,20-18,20.43-15.68C218.81,45,200.5,59.5,200.5,59.5" transform="translate(-6.67 -0.03)" style="fill: none;stroke: #fff;stroke-miterlimit: 10;stroke-width: 9px"/>
  </g>
  <g style="clip-path: url(#clip-path-7)">
    <path class="path" d="M245.5,46.5c.05-.11,1.09-14.73-8-12C227.5,37.5,233,55,233,55s3,12-4,15-12,2-12-1,7.5-18.5,22.5-14.5" transform="translate(-6.67 -0.03)" style="fill: none;stroke: #fff;stroke-miterlimit: 10;stroke-width: 9px"/>
  </g>
  <g style="clip-path: url(#clip-path-8)">
    <path class="path" d="M269,22s-15.5,22.5-17,35c-1.55,12.91,5,11,6,11s7.7-3.94,7.7-3.94" transform="translate(-6.67 -0.03)" style="fill: none;stroke: #fff;stroke-miterlimit: 10;stroke-width: 9px"/>
    <line class="path" x1="242.83" y1="37.47" x2="265.83" y2="35.47" style="fill: none;stroke: #fff;stroke-miterlimit: 10;stroke-width: 9px"/>
  </g>
  <g style="clip-path: url(#clip-path-9)">
    <path class="path" d="M286.5,35.5a47.2,47.2,0,0,0-13,33" transform="translate(-6.67 -0.03)" style="fill: none;stroke: #fff;stroke-miterlimit: 10;stroke-width: 9px"/>
    <line class="path" x1="285.83" y1="16.47" x2="278.83" y2="32.47" style="fill: none;stroke: #fff;stroke-miterlimit: 10;stroke-width: 10px"/>
  </g>
  <g style="clip-path: url(#clip-path-10)">
    <path class="path" d="M308,35s-22.21,13.74-17,31c4.16,13.78,23.79-33.22,24.5-32.5,0,0-9,31-4.5,36.5" transform="translate(-6.67 -0.03)" style="fill: none;stroke: #fff;stroke-miterlimit: 10;stroke-width: 9px"/>
  </g>
  <g style="clip-path: url(#clip-path-11)">
    <path class="path" d="M338,32s-15.58,23.19-14,33c2,12.49,15.77-29,28-28,6.73.55-19,36,5,28" transform="translate(-6.67 -0.03)" style="fill: none;stroke: #fff;stroke-miterlimit: 10;stroke-width: 10px"/>
  </g>
</svg>
